<svg width="267" height="85" viewBox="0 0 267 85" fill="none" xmlns="http://www.w3.org/2000/svg">
<path d="M108.95 39.05C110.217 39.05 111.317 38.8917 112.25 38.575C113.2 38.2583 113.975 37.825 114.575 37.275C115.192 36.7083 115.65 36.0417 115.95 35.275C116.25 34.5083 116.4 33.6667 116.4 32.75C116.4 30.9167 115.792 29.5083 114.575 28.525C113.375 27.5417 111.533 27.05 109.05 27.05H104.75V39.05H108.95ZM126.25 58H120.175C119.025 58 118.192 57.55 117.675 56.65L110.075 45.075C109.792 44.6417 109.475 44.3333 109.125 44.15C108.792 43.9667 108.292 43.875 107.625 43.875H104.75V58H98.025V21.85H109.05C111.5 21.85 113.6 22.1083 115.35 22.625C117.117 23.125 118.558 23.8333 119.675 24.75C120.808 25.6667 121.642 26.7667 122.175 28.05C122.708 29.3167 122.975 30.7167 122.975 32.25C122.975 33.4667 122.792 34.6167 122.425 35.7C122.075 36.7833 121.558 37.7667 120.875 38.65C120.208 39.5333 119.375 40.3083 118.375 40.975C117.392 41.6417 116.267 42.1667 115 42.55C115.433 42.8 115.833 43.1 116.2 43.45C116.567 43.7833 116.9 44.1833 117.2 44.65L126.25 58ZM136.904 27.2V37.225H149.554V42.4H136.904V52.625H152.954V58H130.154V21.85H152.954V27.2H136.904ZM173.464 52.575C174.764 52.575 175.922 52.3583 176.939 51.925C177.972 51.4917 178.839 50.8833 179.539 50.1C180.239 49.3167 180.772 48.3667 181.139 47.25C181.522 46.1333 181.714 44.8833 181.714 43.5V21.85H188.439V43.5C188.439 45.65 188.089 47.6417 187.389 49.475C186.705 51.2917 185.714 52.8667 184.414 54.2C183.13 55.5167 181.564 56.55 179.714 57.3C177.864 58.0333 175.78 58.4 173.464 58.4C171.13 58.4 169.039 58.0333 167.189 57.3C165.339 56.55 163.764 55.5167 162.464 54.2C161.18 52.8667 160.189 51.2917 159.489 49.475C158.805 47.6417 158.464 45.65 158.464 43.5V21.85H165.189V43.475C165.189 44.8583 165.372 46.1083 165.739 47.225C166.122 48.3417 166.664 49.3 167.364 50.1C168.08 50.8833 168.947 51.4917 169.964 51.925C170.997 52.3583 172.164 52.575 173.464 52.575ZM215.273 28.425C215.073 28.775 214.856 29.0333 214.623 29.2C214.406 29.35 214.131 29.425 213.798 29.425C213.448 29.425 213.065 29.3 212.648 29.05C212.248 28.7833 211.765 28.4917 211.198 28.175C210.631 27.8583 209.965 27.575 209.198 27.325C208.448 27.0583 207.556 26.925 206.523 26.925C205.59 26.925 204.773 27.0417 204.073 27.275C203.373 27.4917 202.781 27.8 202.298 28.2C201.831 28.6 201.481 29.0833 201.248 29.65C201.015 30.2 200.898 30.8083 200.898 31.475C200.898 32.325 201.131 33.0333 201.598 33.6C202.081 34.1667 202.715 34.65 203.498 35.05C204.281 35.45 205.173 35.8083 206.173 36.125C207.173 36.4417 208.198 36.7833 209.248 37.15C210.298 37.5 211.323 37.9167 212.323 38.4C213.323 38.8667 214.215 39.4667 214.998 40.2C215.781 40.9167 216.406 41.8 216.873 42.85C217.356 43.9 217.598 45.175 217.598 46.675C217.598 48.3083 217.315 49.8417 216.748 51.275C216.198 52.6917 215.381 53.9333 214.298 55C213.231 56.05 211.923 56.8833 210.373 57.5C208.823 58.1 207.048 58.4 205.048 58.4C203.898 58.4 202.765 58.2833 201.648 58.05C200.531 57.8333 199.456 57.5167 198.423 57.1C197.406 56.6833 196.448 56.1833 195.548 55.6C194.648 55.0167 193.848 54.3667 193.148 53.65L195.123 50.425C195.29 50.1917 195.506 50 195.773 49.85C196.04 49.6833 196.323 49.6 196.623 49.6C197.04 49.6 197.49 49.775 197.973 50.125C198.456 50.4583 199.031 50.8333 199.698 51.25C200.365 51.6667 201.14 52.05 202.023 52.4C202.923 52.7333 203.998 52.9 205.248 52.9C207.165 52.9 208.648 52.45 209.698 51.55C210.748 50.6333 211.273 49.325 211.273 47.625C211.273 46.675 211.031 45.9 210.548 45.3C210.081 44.7 209.456 44.2 208.673 43.8C207.89 43.3833 206.998 43.0333 205.998 42.75C204.998 42.4667 203.981 42.1583 202.948 41.825C201.915 41.4917 200.898 41.0917 199.898 40.625C198.898 40.1583 198.006 39.55 197.223 38.8C196.44 38.05 195.806 37.1167 195.323 36C194.856 34.8667 194.623 33.475 194.623 31.825C194.623 30.5083 194.881 29.225 195.398 27.975C195.931 26.725 196.698 25.6167 197.698 24.65C198.698 23.6833 199.931 22.9083 201.398 22.325C202.865 21.7417 204.548 21.45 206.448 21.45C208.581 21.45 210.548 21.7833 212.348 22.45C214.148 23.1167 215.681 24.05 216.948 25.25L215.273 28.425Z" fill="#FF6B6B"/>
<path d="M222.289 40.325H235.239V45.475H222.289V40.325ZM248.867 27.2V37.225H261.517V42.4H248.867V52.625H264.917V58H242.117V21.85H264.917V27.2H248.867Z" fill="#4D96FF"/>
<path d="M7.77777 68.6667C7.77777 67.5621 8.6732 66.6667 9.77777 66.6667H70.2222C71.3268 66.6667 72.2222 67.5621 72.2222 68.6667V82.4444C72.2222 83.549 71.3268 84.4444 70.2222 84.4444H9.77777C8.6732 84.4444 7.77777 83.549 7.77777 82.4444V68.6667Z" fill="#FF6B6B"/>
<rect width="80" height="77.7778" rx="1" fill="#FF6B6B"/>
<g filter="url(#filter0_i_7_13)">
<path d="M5.55557 7.77777H74.4445V63.3333H5.55557V7.77777Z" fill="#4D96FF"/>
</g>
<circle cx="15.5555" cy="71.1111" r="2.22222" fill="#4D96FF"/>
<circle cx="24.4445" cy="71.1111" r="2.22222" fill="#4D96FF"/>
<circle cx="33.3333" cy="71.1111" r="2.22222" fill="#4D96FF"/>
<circle cx="64.4444" cy="71.1111" r="4.44444" fill="#4D96FF"/>
<circle cx="42.2222" cy="71.1111" r="2.22222" fill="#4D96FF"/>
<defs>
<filter id="filter0_i_7_13" x="5.55557" y="7.77777" width="68.8889" height="59.5555" filterUnits="userSpaceOnUse" color-interpolation-filters="sRGB">
<feFlood flood-opacity="0" result="BackgroundImageFix"/>
<feBlend mode="normal" in="SourceGraphic" in2="BackgroundImageFix" result="shape"/>
<feColorMatrix in="SourceAlpha" type="matrix" values="0 0 0 0 0 0 0 0 0 0 0 0 0 0 0 0 0 0 127 0" result="hardAlpha"/>
<feOffset dy="4"/>
<feGaussianBlur stdDeviation="2"/>
<feComposite in2="hardAlpha" operator="arithmetic" k2="-1" k3="1"/>
<feColorMatrix type="matrix" values="0 0 0 0 0 0 0 0 0 0 0 0 0 0 0 0 0 0 0.25 0"/>
<feBlend mode="normal" in2="shape" result="effect1_innerShadow_7_13"/>
</filter>
</defs>
</svg>
