<svg width="40" height="43" viewBox="0 0 40 43" fill="none" xmlns="http://www.w3.org/2000/svg">
<path d="M3.88885 35.3333C3.88885 34.2287 4.78429 33.3333 5.88885 33.3333H34.1111C35.2156 33.3333 36.1111 34.2287 36.1111 35.3333V40.2222C36.1111 41.3268 35.2156 42.2222 34.1111 42.2222H5.88885C4.78428 42.2222 3.88885 41.3268 3.88885 40.2222V35.3333Z" fill="#FF6B6B"/>
<rect width="40" height="38.8889" rx="1" fill="#FF6B6B"/>
<g filter="url(#filter0_i_16_6)">
<path d="M2.77777 3.88889H37.2222V31.6667H2.77777V3.88889Z" fill="#4D96FF"/>
</g>
<circle cx="7.77774" cy="35.5556" r="1.11111" fill="#4D96FF"/>
<circle cx="12.2222" cy="35.5556" r="1.11111" fill="#4D96FF"/>
<circle cx="16.6667" cy="35.5556" r="1.11111" fill="#4D96FF"/>
<circle cx="32.2222" cy="35.5555" r="2.22222" fill="#4D96FF"/>
<circle cx="21.1111" cy="35.5556" r="1.11111" fill="#4D96FF"/>
<defs>
<filter id="filter0_i_16_6" x="2.77777" y="3.88889" width="34.4444" height="31.7778" filterUnits="userSpaceOnUse" color-interpolation-filters="sRGB">
<feFlood flood-opacity="0" result="BackgroundImageFix"/>
<feBlend mode="normal" in="SourceGraphic" in2="BackgroundImageFix" result="shape"/>
<feColorMatrix in="SourceAlpha" type="matrix" values="0 0 0 0 0 0 0 0 0 0 0 0 0 0 0 0 0 0 127 0" result="hardAlpha"/>
<feOffset dy="4"/>
<feGaussianBlur stdDeviation="2"/>
<feComposite in2="hardAlpha" operator="arithmetic" k2="-1" k3="1"/>
<feColorMatrix type="matrix" values="0 0 0 0 0 0 0 0 0 0 0 0 0 0 0 0 0 0 0.25 0"/>
<feBlend mode="normal" in2="shape" result="effect1_innerShadow_16_6"/>
</filter>
</defs>
</svg>
